<mxfile host="app.diagrams.net" modified="2024-02-21T15:06:32.786Z" agent="Mozilla/5.0 (Macintosh; Intel Mac OS X 10_15_7) AppleWebKit/537.36 (KHTML, like Gecko) Chrome/121.0.0.0 Safari/537.36" version="22.1.16" etag="0ig8lwpxBG7MyCmGq2kO" type="github">
  <diagram name="Page-1" id="O0dBEa_Cwzr5BDH429Uh">
    <mxGraphModel>
      <root>
        <mxCell id="0" />
        <mxCell id="1" parent="0" />
      </root>
    </mxGraphModel>
  </diagram>
</mxfile>
